# xmcd
#
# Track frame offsets:
#	150
#	11596
#	22248
#	34660
#	52228
#	68945
#	80929
#	90998
#	106434
#	116449
#	128642
#
# Disc length: 1936 seconds
#
# Revision: 0
# Processed by: cddbd v1.5PL3 Copyright (c) Steve Scherf et al.
# Submitted via: audiograbber 1.80
#
DISCID=93078e0b
DTITLE=Buddy Guy - Left My Blues In San Francisco
DYEAR=1900
DGENRE=
TTITLE0=Keep It To Myself
TTITLE1=Crazy Love
TTITLE2=I Suffer With The Blues
TTITLE3=When My Left Eye Jumps
TTITLE4=Buddy's Groove
TTITLE5=Goin' Home
TTITLE6=She Suits Me To A Tee
TTITLE7=Leave My Girl Alone
TTITLE8=Too Many Ways
TTITLE9=Mother-In-Law
TTITLE10=Every Girl I See
EXTD=
EXTT0=
EXTT1=
EXTT2=
EXTT3=
EXTT4=
EXTT5=
EXTT6=
EXTT7=
EXTT8=
EXTT9=
EXTT10=
PLAYORDER=
